<svg id="_0400_chicago" data-name="0400_chicago" xmlns="http://www.w3.org/2000/svg" viewBox="0 0 500 500" data-imageid="chicago-73" imageName="Chicago" class="illustrations_image" style="width: 180px;"><defs><style>.cls-1_chicago-73{fill:#fff;}.cls-2_chicago-73{fill:#093f68;}.cls-3_chicago-73{fill:#dfeaef;}.cls-4_chicago-73{fill:#68e1fd;}</style></defs><g id="circle_chicago-73"><path class="cls-1_chicago-73" d="M426.91,250.24A176.91,176.91,0,1,1,250,73.34,176.65,176.65,0,0,1,426.91,250.24Z"/><path class="cls-2_chicago-73" d="M250,429A178.62,178.62,0,0,1,71.21,250.24c0-98.58,80.21-178.79,178.79-178.79s178.79,80.21,178.79,178.79A178.8,178.8,0,0,1,250,429Zm0-353.81c-96.51,0-175,78.52-175,175a175,175,0,1,0,350,0C425,153.74,346.51,75.22,250,75.22Z"/></g><g id="lines_chicago-73"><path class="cls-3_chicago-73" d="M227.19,357h-43.4a1.89,1.89,0,0,1-1.89-1.88v-9.2H147.05a1.88,1.88,0,0,1-1.88-1.89V328.93H111a1.89,1.89,0,0,1-1.88-1.89V305.18H92.39a1.89,1.89,0,1,1,0-3.77H111a1.89,1.89,0,0,1,1.89,1.88v21.87h34.2a1.88,1.88,0,0,1,1.89,1.88v15.1h34.85a1.88,1.88,0,0,1,1.88,1.88v9.2h39.64V326a1.89,1.89,0,0,1,1.88-1.89h36a1.89,1.89,0,0,1,1.89,1.89v8.49a1.89,1.89,0,1,1-3.77,0v-6.61H229.08v27.25A1.88,1.88,0,0,1,227.19,357Z"/><path class="cls-3_chicago-73" d="M304.4,319.89a1.89,1.89,0,0,1-1.89-1.88V247.24a1.89,1.89,0,0,1,1.89-1.88h9.51v-60a1.88,1.88,0,0,1,1.88-1.89h8.08V143.22a1.89,1.89,0,0,1,1.16-1.74l11.87-4.95a1.82,1.82,0,0,1,.72-.15h22.79a1.88,1.88,0,0,1,1.88,1.88v49.42h16.62a1.89,1.89,0,0,1,1.89,1.89v59.68h9.51a1.88,1.88,0,0,1,1.88,1.89v24.05a1.89,1.89,0,1,1-3.77,0V253h-9.51a1.88,1.88,0,0,1-1.88-1.88V191.45H360.41a1.88,1.88,0,0,1-1.89-1.88V140.15H338l-10.36,4.32v40.86a1.88,1.88,0,0,1-1.88,1.88h-8.08v60a1.89,1.89,0,0,1-1.89,1.89h-9.51V318A1.88,1.88,0,0,1,304.4,319.89Z"/><path class="cls-3_chicago-73" d="M360.41,269.3a1.89,1.89,0,0,1-1.89-1.89V189.57a1.89,1.89,0,1,1,3.77,0v77.84A1.89,1.89,0,0,1,360.41,269.3Z"/><path class="cls-3_chicago-73" d="M337.62,192.87a1.88,1.88,0,0,1-1.88-1.88V138.26a1.89,1.89,0,0,1,3.77,0V191A1.88,1.88,0,0,1,337.62,192.87Z"/><path class="cls-3_chicago-73" d="M330.43,143.16a1.89,1.89,0,0,1-1.89-1.89V128.36a1.89,1.89,0,1,1,3.77,0v12.91A1.89,1.89,0,0,1,330.43,143.16Z"/><path class="cls-3_chicago-73" d="M350,140.15a1.88,1.88,0,0,1-1.88-1.89V125.53a1.89,1.89,0,1,1,3.77,0v12.73A1.89,1.89,0,0,1,350,140.15Z"/><path class="cls-3_chicago-73" d="M371.55,359.39a1.88,1.88,0,0,1-1.88-1.89V280.34a1.88,1.88,0,0,1,1.88-1.89h41.93a1.89,1.89,0,1,1,0,3.77h-40V357.5A1.88,1.88,0,0,1,371.55,359.39Z"/></g><g id="building_chicago-73"><path class="cls-2_chicago-73" d="M221.54,386.66H155.93a1.9,1.9,0,0,1-1.47-.7,1.93,1.93,0,0,1-.37-1.59L186.9,234.08a1.88,1.88,0,0,1,3.68,0l32.8,150.29a1.88,1.88,0,0,1-1.84,2.29Zm-63.27-3.77H219.2L188.74,243.32Z"/><path class="cls-2_chicago-73" d="M188.74,323.06a88.58,88.58,0,1,1,88.58-88.58A88.67,88.67,0,0,1,188.74,323.06Zm0-173.39a84.81,84.81,0,1,0,84.81,84.81A84.91,84.91,0,0,0,188.74,149.67Z"/><path class="cls-2_chicago-73" d="M188.74,305.18a70.7,70.7,0,1,1,70.69-70.7A70.78,70.78,0,0,1,188.74,305.18Zm0-137.62a66.93,66.93,0,1,0,66.92,66.92A67,67,0,0,0,188.74,167.56Z"/><path class="cls-2_chicago-73" d="M188.74,321.88a1.88,1.88,0,0,1-1.89-1.88V149a1.89,1.89,0,1,1,3.77,0V320A1.88,1.88,0,0,1,188.74,321.88Z"/><path class="cls-2_chicago-73" d="M128.27,296.83a1.88,1.88,0,0,1-1.33-3.21L247.87,172.68a1.89,1.89,0,0,1,2.67,2.67L129.6,296.28A1.87,1.87,0,0,1,128.27,296.83Z"/><path class="cls-2_chicago-73" d="M274.25,236.37h-171a1.89,1.89,0,0,1,0-3.77h171a1.89,1.89,0,0,1,0,3.77Z"/><path class="cls-2_chicago-73" d="M249.2,296.83a1.87,1.87,0,0,1-1.33-.55L126.94,175.35a1.88,1.88,0,1,1,2.66-2.67L250.54,293.62a1.88,1.88,0,0,1-1.34,3.21Z"/><path class="cls-4_chicago-73 targetColor" d="M178.13,138.6h21.2a0,0,0,0,1,0,0v15.11A2.32,2.32,0,0,1,197,156H180.45a2.32,2.32,0,0,1-2.32-2.32V138.6A0,0,0,0,1,178.13,138.6Z" style="fill: rgb(104, 225, 253);"/><path class="cls-2_chicago-73" d="M195,157.91H182.5a6.25,6.25,0,0,1-6.25-6.25V138.6a1.89,1.89,0,0,1,1.88-1.89h21.21a1.89,1.89,0,0,1,1.88,1.89v13.06A6.25,6.25,0,0,1,195,157.91ZM180,140.48v11.18a2.48,2.48,0,0,0,2.48,2.48H195a2.48,2.48,0,0,0,2.48-2.48V140.48Z"/><path class="cls-4_chicago-73 targetColor" d="M178.13,312.94h21.2a0,0,0,0,1,0,0V328a2.32,2.32,0,0,1-2.32,2.32H180.45a2.32,2.32,0,0,1-2.32-2.32V312.94A0,0,0,0,1,178.13,312.94Z" style="fill: rgb(104, 225, 253);"/><path class="cls-2_chicago-73" d="M195,332.25H182.5a6.26,6.26,0,0,1-6.25-6.25V312.94a1.88,1.88,0,0,1,1.88-1.89h21.21a1.88,1.88,0,0,1,1.88,1.89V326A6.26,6.26,0,0,1,195,332.25ZM180,314.82V326a2.49,2.49,0,0,0,2.48,2.48H195a2.49,2.49,0,0,0,2.48-2.48V314.82Z"/><path class="cls-4_chicago-73 targetColor" d="M239.77,164.13H261a0,0,0,0,1,0,0v15.11a2.32,2.32,0,0,1-2.32,2.32H242.09a2.32,2.32,0,0,1-2.32-2.32V164.13A0,0,0,0,1,239.77,164.13Z" style="fill: rgb(104, 225, 253);"/><path class="cls-2_chicago-73" d="M256.61,183.44H244.14a6.25,6.25,0,0,1-6.25-6.25V164.13a1.88,1.88,0,0,1,1.88-1.88H261a1.88,1.88,0,0,1,1.88,1.88v13.06A6.25,6.25,0,0,1,256.61,183.44Zm-15-17.42v11.17a2.48,2.48,0,0,0,2.48,2.48h12.47a2.48,2.48,0,0,0,2.48-2.48V166Z"/>
<path class="cls-4_chicago-73 targetColor" d="M116.5,287.41h21.2a0,0,0,0,1,0,0v15.11a2.32,2.32,0,0,1-2.32,2.32H118.81a2.32,2.32,0,0,1-2.32-2.32V287.41A0,0,0,0,1,116.5,287.41Z" style="fill: rgb(104, 225, 253);"/><path class="cls-2_chicago-73" d="M133.33,306.72H120.87a6.27,6.27,0,0,1-6.26-6.26V287.4a1.88,1.88,0,0,1,1.89-1.88h21.2a1.89,1.89,0,0,1,1.89,1.88v13.06A6.27,6.27,0,0,1,133.33,306.72Zm-15-17.43v11.17a2.5,2.5,0,0,0,2.49,2.49h12.46a2.5,2.5,0,0,0,2.49-2.49V289.29Z"/><path class="cls-4_chicago-73 targetColor" d="M265.3,225.77h21.2a0,0,0,0,1,0,0v15.11a2.32,2.32,0,0,1-2.32,2.32H267.62a2.32,2.32,0,0,1-2.32-2.32V225.77a0,0,0,0,1,0,0Z" style="fill: rgb(104, 225, 253);"/><path class="cls-2_chicago-73" d="M282.14,245.08H269.67a6.25,6.25,0,0,1-6.25-6.25V225.77a1.89,1.89,0,0,1,1.88-1.89h21.21a1.89,1.89,0,0,1,1.88,1.89v13.06A6.25,6.25,0,0,1,282.14,245.08Zm-14.95-17.43v11.18a2.48,2.48,0,0,0,2.48,2.48h12.47a2.48,2.48,0,0,0,2.48-2.48V227.65Z"/><path class="cls-4_chicago-73 targetColor" d="M91,225.77h21.2a0,0,0,0,1,0,0v15.11a2.32,2.32,0,0,1-2.32,2.32H93.28A2.32,2.32,0,0,1,91,240.88V225.77A0,0,0,0,1,91,225.77Z" style="fill: rgb(104, 225, 253);"/><path class="cls-2_chicago-73" d="M107.8,245.08H95.33a6.25,6.25,0,0,1-6.25-6.25V225.77A1.89,1.89,0,0,1,91,223.88h21.21a1.89,1.89,0,0,1,1.89,1.89v13.06A6.26,6.26,0,0,1,107.8,245.08Zm-15-17.43v11.18a2.48,2.48,0,0,0,2.48,2.48H107.8a2.49,2.49,0,0,0,2.49-2.48V227.65Z"/><path class="cls-4_chicago-73 targetColor" d="M239.77,287.41H261a0,0,0,0,1,0,0v15.11a2.32,2.32,0,0,1-2.32,2.32H242.09a2.32,2.32,0,0,1-2.32-2.32V287.41A0,0,0,0,1,239.77,287.41Z" style="fill: rgb(104, 225, 253);"/><path class="cls-2_chicago-73" d="M256.61,306.72H244.14a6.26,6.26,0,0,1-6.25-6.26V287.4a1.88,1.88,0,0,1,1.88-1.88H261a1.88,1.88,0,0,1,1.88,1.88v13.06A6.26,6.26,0,0,1,256.61,306.72Zm-15-17.43v11.17a2.49,2.49,0,0,0,2.48,2.49h12.47a2.49,2.49,0,0,0,2.48-2.49V289.29Z"/><path class="cls-4_chicago-73 targetColor" d="M116.5,164.13h21.2a0,0,0,0,1,0,0v15.11a2.32,2.32,0,0,1-2.32,2.32H118.81a2.32,2.32,0,0,1-2.32-2.32V164.13A0,0,0,0,1,116.5,164.13Z" style="fill: rgb(104, 225, 253);"/><path class="cls-2_chicago-73" d="M133.33,183.44H120.87a6.26,6.26,0,0,1-6.26-6.25V164.13a1.88,1.88,0,0,1,1.89-1.88h21.2a1.89,1.89,0,0,1,1.89,1.88v13.06A6.26,6.26,0,0,1,133.33,183.44Zm-15-17.42v11.17a2.49,2.49,0,0,0,2.49,2.48h12.46a2.49,2.49,0,0,0,2.49-2.48V166Z"/><circle class="cls-1_chicago-73" cx="188.74" cy="234.48" r="12.71"/><path class="cls-2_chicago-73" d="M188.74,249.08a14.6,14.6,0,1,1,14.6-14.6A14.62,14.62,0,0,1,188.74,249.08Zm0-25.43a10.83,10.83,0,1,0,10.83,10.83A10.84,10.84,0,0,0,188.74,223.65Z"/><path class="cls-4_chicago-73 targetColor" d="M357,366a39.59,39.59,0,0,1-.44,6.22c-4.26,27.08-38.68-1.19-55.9-1.19s-51.88,30.18-55.95,1.23a46.63,46.63,0,0,1-.39-6.26c0-19.46,25.23-35.75,56.34-35.75S357,346.51,357,366Z" style="fill: rgb(104, 225, 253);"/><path class="cls-2_chicago-73" d="M256.61,386.66a13.63,13.63,0,0,1-6.79-1.6c-3.77-2.11-6.13-6.34-7-12.57a46.7,46.7,0,0,1-.42-6.52c0-20.75,26.12-37.63,58.23-37.63s58.23,16.88,58.23,37.63a43.14,43.14,0,0,1-.46,6.51c-.9,5.7-3.19,9.62-6.8,11.66-7.57,4.28-19.32-.52-30.68-5.15-7.36-3-15-6.11-20.29-6.11s-13,3.32-20.34,6.52C272,383,263.54,386.66,256.61,386.66Zm44-54.55c-29.52,0-54.46,15.51-54.46,33.86a43.8,43.8,0,0,0,.38,6c.71,5.07,2.39,8.27,5.12,9.8,6,3.34,16.71-1.32,27.12-5.83,8.09-3.51,15.73-6.83,21.84-6.83s13.67,3.11,21.72,6.39c10.53,4.3,21.41,8.73,27.4,5.36,2.59-1.46,4.2-4.4,4.92-9a38.09,38.09,0,0,0,.42-5.93C355.09,347.62,330.15,332.11,300.63,332.11Z"/><path class="cls-4_chicago-73 targetColor" d="M356.53,372.19c-4.26,27.08-38.68-1.19-55.9-1.19s-51.88,30.18-55.95,1.23c10.85-10.21,31.84-17.12,55.95-17.12S345.68,362,356.53,372.19Z" style="fill: rgb(104, 225, 253);"/><path class="cls-2_chicago-73" d="M256.61,386.66a13.63,13.63,0,0,1-6.79-1.6c-3.77-2.11-6.13-6.34-7-12.57a1.89,1.89,0,0,1,.57-1.64c11.57-10.87,33.5-17.63,57.24-17.63s45.62,6.74,57.19,17.6a1.88,1.88,0,0,1,.58,1.66c-.9,5.7-3.19,9.62-6.8,11.66-7.57,4.28-19.32-.52-30.68-5.15-7.36-3-15-6.11-20.29-6.11s-13,3.32-20.34,6.52C272,383,263.54,386.66,256.61,386.66Zm-9.91-13.72c.79,4.51,2.41,7.4,5,8.83,6,3.34,16.71-1.32,27.12-5.83,8.09-3.51,15.73-6.83,21.84-6.83s13.67,3.11,21.72,6.39c10.53,4.3,21.41,8.73,27.4,5.36,2.4-1.36,4-4,4.75-8-11.09-9.83-31.6-15.9-53.87-15.9S257.78,363.08,246.7,372.94Z"/><path class="cls-4_chicago-73 targetColor" d="M364.87,384.78a176.9,176.9,0,0,1-229.74,0Z" style="fill: rgb(104, 225, 253);"/><path class="cls-2_chicago-73" d="M250,429a178.7,178.7,0,0,1-116.1-42.82,1.92,1.92,0,0,1-.54-2.09,1.89,1.89,0,0,1,1.77-1.23H364.87a1.89,1.89,0,0,1,1.77,1.23,1.92,1.92,0,0,1-.54,2.09A178.7,178.7,0,0,1,250,429ZM140.35,386.66a175,175,0,0,0,219.3,0Z"/></g></svg>